<svg width="134" height="86" viewBox="0 0 134 86" fill="none" xmlns="http://www.w3.org/2000/svg">
<path d="M41.0003 16.0001C37.8003 14.4001 39.667 13.0001 41.0003 12.5001C44.5003 12.0001 54.0002 12.5001 58.0002 12.5001C61.2002 12.5001 60.0002 13.8334 59.0002 14.5001C57.8002 14.5001 54.8336 15.5001 53.5002 16.0001C47.5002 18.0001 42.6669 16.8334 41.0003 16.0001Z" fill="#344564" stroke="#344564" stroke-linecap="round"/>
<path d="M93.9998 15C93.5998 11 99.4998 10.3333 102.5 10.5V18.5C95.6998 19.3 93.9998 16.5 93.9998 15Z" stroke="#344564" stroke-width="3" stroke-linecap="round"/>
<path d="M50.5 31.5L46.5 35.5M38.5 44.5L28.5 55M27.5 59.5H44.5M66 68.5L72 77.5M67 78.5H76.5" stroke="#FFC107" stroke-width="4" stroke-linecap="round"/>
<path d="M49 22.5L57.1818 49.5M59 55.5L57.1818 49.5M86 26L57.1818 49.5M89 34.5L68 57.5" stroke="#FFC107" stroke-width="4" stroke-linecap="round"/>
<path d="M74 2C78.8333 2 88.5 2 88.5 2C91 3 91.5 7 88.5 11L102 52.5C102.667 53.3333 104.6 55.4 107 57" stroke="#FFC107" stroke-width="4" stroke-linecap="round"/>
<circle cx="62" cy="63" r="7" stroke="#FFC107" stroke-width="4"/>
<circle cx="26.5" cy="57.5" r="24.5" stroke="#344564" stroke-width="4"/>
<circle cx="27" cy="58" r="5" fill="#344564"/>
<circle cx="108" cy="58" r="5" fill="#344564"/>
<path fill-rule="evenodd" clip-rule="evenodd" d="M91.2375 38.5752C85.0075 43.4241 81 50.994 81 59.5C81 74.1355 92.8645 86 107.5 86C122.136 86 134 74.1355 134 59.5C134 44.8645 122.136 33 107.5 33C105.635 33 103.816 33.1926 102.06 33.5589L103.529 37.3492C104.818 37.1198 106.145 37 107.5 37C119.926 37 130 47.0736 130 59.5C130 71.9264 119.926 82 107.5 82C95.0736 82 85 71.9264 85 59.5C85 52.7121 88.0058 46.6262 92.7591 42.5009L91.2375 38.5752Z" fill="#344564"/>
</svg>
