<svg width="38" height="38" viewBox="0 0 38 38" fill="none" xmlns="http://www.w3.org/2000/svg">
<path d="M19 26.125C20.8897 26.125 22.7019 25.3743 24.0381 24.0381C25.3743 22.7019 26.125 20.8897 26.125 19C26.125 17.1103 25.3743 15.2981 24.0381 13.9619C22.7019 12.6257 20.8897 11.875 19 11.875C17.1103 11.875 15.2981 12.6257 13.9619 13.9619C12.6257 15.2981 11.875 17.1103 11.875 19C11.875 20.8897 12.6257 22.7019 13.9619 24.0381C15.2981 25.3743 17.1103 26.125 19 26.125ZM20.7812 1.78125C20.7812 1.30883 20.5936 0.855765 20.2595 0.521716C19.9255 0.187667 19.4724 0 19 0C18.5276 0 18.0745 0.187667 17.7405 0.521716C17.4064 0.855765 17.2188 1.30883 17.2188 1.78125V4.85925C14.0791 5.25554 11.1605 6.68515 8.92283 8.92283C6.68515 11.1605 5.25554 14.0791 4.85925 17.2188H1.78125C1.30883 17.2188 0.855765 17.4064 0.521716 17.7405C0.187667 18.0745 0 18.5276 0 19C0 19.4724 0.187667 19.9255 0.521716 20.2595C0.855765 20.5936 1.30883 20.7812 1.78125 20.7812H4.85925C5.25554 23.9209 6.68515 26.8395 8.92283 29.0772C11.1605 31.3149 14.0791 32.7445 17.2188 33.1408V36.2188C17.2188 36.6912 17.4064 37.1442 17.7405 37.4783C18.0745 37.8123 18.5276 38 19 38C19.4724 38 19.9255 37.8123 20.2595 37.4783C20.5936 37.1442 20.7812 36.6912 20.7812 36.2188V33.1408C23.9209 32.7445 26.8395 31.3149 29.0772 29.0772C31.3149 26.8395 32.7445 23.9209 33.1408 20.7812H36.2188C36.6912 20.7812 37.1442 20.5936 37.4783 20.2595C37.8123 19.9255 38 19.4724 38 19C38 18.5276 37.8123 18.0745 37.4783 17.7405C37.1442 17.4064 36.6912 17.2188 36.2188 17.2188H33.1408C32.7445 14.0791 31.3149 11.1605 29.0772 8.92283C26.8395 6.68515 23.9209 5.25554 20.7812 4.85925V1.78125ZM19 29.6875C17.5965 29.6875 16.2067 29.4111 14.9101 28.874C13.6134 28.3369 12.4352 27.5496 11.4428 26.5572C10.4504 25.5648 9.66313 24.3866 9.12604 23.0899C8.58894 21.7933 8.3125 20.4035 8.3125 19C8.3125 17.5965 8.58894 16.2067 9.12604 14.9101C9.66313 13.6134 10.4504 12.4352 11.4428 11.4428C12.4352 10.4504 13.6134 9.66313 14.9101 9.12604C16.2067 8.58894 17.5965 8.3125 19 8.3125C21.8345 8.3125 24.5529 9.4385 26.5572 11.4428C28.5615 13.4471 29.6875 16.1655 29.6875 19C29.6875 21.8345 28.5615 24.5529 26.5572 26.5572C24.5529 28.5615 21.8345 29.6875 19 29.6875Z" fill="#FADD47"/>
</svg>
